<svg t="1718700061426" class="icon" viewBox="0 0 1024 1024" version="1.1" xmlns="http://www.w3.org/2000/svg" p-id="20496" width="200" height="200"><path d="M233.6 560.8c-22-10.4-56.4-26-76-34.4-19.6-8.8-36.4-16.4-37.2-17.2-6-4.4 23.6-19.6 89.2-46.8 41.2-16.8 76-30.4 76.4-29.6 1.6 1.6 3.2 23.2 2.8 32.4-1.2 9.6-12.8 8.8-12.8-1.2 0-4.4-0.8-8-2-8-4.4 0-112.4 45.2-116 48.4-2 2.4-0.8 3.6 3.2 3.6 3.6 0 6.8 2 6.8 4 0 2.4 2.4 4 5.2 4 2.4 0 24.8 8.8 48.8 19.6 31.6 14 47.2 19.2 55.2 17.6 10.8-2 11.2-1.6 10 11.2-0.8 8.4-3.6 13.6-7.2 14-3.2 0.4-24-7.6-46.4-17.6zM184 550c-5.6-3.2-8-5.6-6-5.6 2.4 0 8.4 2.4 14 5.6s8.4 5.6 6 5.6c-2 0-8.4-2.4-14-5.6zM122.8 530.4c-3.2-8.4 0.8-10 14-5.6 8.4 3.2 10.4 5.2 6.8 7.6-3.2 1.6-8 1.2-11.2-1.6-4.8-3.6-5.2-3.6-2.8 0.4 1.6 2.4 1.2 4.8-0.8 4.8-2.4 0-4.8-2.4-6-5.6zM126.4 482c-2.8-7.6 1.6-20 45.2-120 40.4-93.6 52-118 56.4-118 1.6 0 4.8 4.8 7.6 11.2 8.8 18.4 52.4 143.6 52.4 149.6 0 11.2-11.2 20-42 34-37.2 16.4-114.8 49.2-116 49.2-0.8 0-2-2.8-3.6-6z m88.8-82.8c6.8-9.2 11.6-8.8 31.2 0.4 18.8 8.8 36.8 14.4 32.4 10-1.6-1.6-14-8.4-27.6-15.2l-24.4-12.4-40.4 40.4c-54.8 54.8-65.2 68.4-16.4 21.6 21.6-20.8 42-41.2 45.2-44.8z m26.4 20.4c0.8-0.8-0.4-3.6-3.2-6-5.6-5.2-10.8-2-24 13.6l-8 9.2 16.8-7.6c9.2-4 17.6-8.4 18.4-9.2z m10.8-67.6l-8-22v22.8c-0.4 18.4 0.8 22.8 6.8 24 9.6 2 10-0.4 1.2-24.8zM319.2 445.2c-9.2-12-13.2-20.8-11.2-22.8 4.8-4.8 44-10 46.4-6 2.4 4.4-11.6 44.8-16.4 46.4-2.4 0.8-10.8-7.2-18.8-17.6zM298.4 396.4c-1.2-1.6-4-8-6-14-4-9.6-3.2-10.4 5.6-10.4 5.6 0 10.4 2.8 12 7.6 4 12.8-5.6 26.8-11.6 16.8zM286.4 364.4c-1.2-1.6-4-8-6-14-4-9.6-3.2-10.4 5.6-10.4s10 1.6 10 14c0 13.2-4.8 18.4-9.6 10.4zM421.6 329.2c1.6-12.8 4-24.4 6-26.4 3.6-3.6 40.4 24.4 40.4 31.2 0 3.6-36 18-46 18-1.6 0-2-10.4-0.4-22.8zM252.8 278.8c-17.6-46.4-17.6-56.4 0-47.6 5.2 2.4 6.8 4.4 4.4 4.4-2.8 0.4-5.2 2.8-5.2 6s-1.6 6.4-3.2 7.2c-6.4 2.4 6.8 27.2 14.8 27.2 7.6 0 12.4 10.4 12.4 28 0 24.4-7.2 17.2-23.2-25.2zM332 274c0-9.6 0.4-10 12.8-4.8 18.4 7.6 19.2 14.8 1.6 14.8-12.8 0-14.4-1.2-14.4-10zM371.6 270.4c-25.6-10.4-30-18.4-10-18.4 8 0 14.4 2 14.4 4 0 2.4 4.4 4 10 4 6.4 0 10-2.4 10-6 0-8.4 6.8-7.6 12 1.6 11.2 21.6-4 27.6-36.4 14.8zM402.4 229.2c-2-4.8 8.4-18 38.4-48.8l41.2-42-44 41.6c-42.8 40.8-44 41.6-45.2 30.8-1.6-12 8.4-26.8 18-26.8 2.8 0 5.2-2.8 5.2-6s2.4-6 5.6-6c2.8 0 8-2.8 10.8-6.4 4.4-5.6 3.2-5.6-10.4 0.8-8.8 3.6-23.6 8.8-32.8 11.2-9.6 2.4-17.2 5.6-17.2 7.2 0 2-4.4 3.2-10 3.2s-10 1.6-10 3.2c0 3.6-23.6 12.8-33.2 12.8-3.6 0-6.8 2-6.8 4 0 2.4-4.4 4-10 4-8 0-10 2-10 10.4 0 10-0.8 10.4-14.8 8.4-19.6-3.2-24.8-9.2-14.8-16.4 10.4-7.6 217.6-90.4 226.4-90.4 3.6 0 7.6 1.6 8.8 3.6 4 6-25.6 65.2-31.2 63.2-2.8-1.2-16 8.4-28.8 21.6-24.4 24.8-31.2 28-35.2 16.8z" fill="#262F8A" p-id="20497"></path><path d="M228 780c0-2.8 2.4-9.6 5.6-15.2 2.8-6 7.6-15.6 10.4-21.6 7.2-15.2 12-14 12 2.8 0 7.6-1.6 14-3.6 14s-4.4 4.8-5.2 11.2c-0.8 7.6-3.6 11.2-10 12-5.2 0.8-9.2-0.8-9.2-3.2zM217.6 754.4c-1.2-3.2-1.6-9.2-0.4-13.2 1.2-4.4 2-2.8 2.4 4.4 0.4 12.8 5.2 11.2 7.2-2.4 1.6-10 4-13.6 7.6-10 3.6 3.2-6.4 26.8-11.2 26.8-2 0-4.4-2.4-5.6-5.6zM252 662.4c0-12.8 1.2-14.4 10-14.4 9.6 0 10 0.4 4.8 12.8-7.6 18.4-14.8 19.2-14.8 1.6zM293.6 625.6c1.2-3.6 2.4-7.2 2.4-8 0-4.4 6.8-0.8 11.2 6.4s4 8-5.6 8c-8 0-10-1.6-8-6.4zM272 618.4c0-3.2 2-7.2 4.8-8.8s-3.2-5.2-14-8.4c-15.6-4.4-18.8-7.2-18.8-15.2 0-8.8 1.2-9.6 10-6 26.4 10 36.8 22.8 30 36.4-5.2 8.8-12 10-12 2zM181.2 565.2c-9.2-4.8-13.2-9.6-13.2-16 0-8 1.2-8.4 10-5.2 19.6 7.6 42 20.4 42 24 0 6-24.4 4.4-38.8-2.8zM125.6 500.4c3.6-4 10.8-8.4 15.6-9.6 4.8-0.8 12-3.2 16-4.8 5.2-2.4 6.8-0.8 6.8 7.2 0 7.6-2.4 10.4-12.4 12.4-6.8 1.2-17.2 2.4-22.8 2.4-9.6 0-9.6-0.4-3.2-7.6zM184 480c0-3.6 17.6-12.8 47.2-24.4 7.6-2.8 8.8-2 8.8 6.4 0 8.8-1.6 10-14 10-9.6 0-14 2-14 6s-4.4 6-14 6c-7.6 0-14-2-14-4zM294.8 385.2c-4-8.4-14.8-36-24.4-61.2s-21.2-55.2-25.6-66.4c-4.8-11.6-6.8-22.4-4.8-25.2 2.4-4 22.4 2.8 83.6 28 44 18.4 80.4 35.6 80.4 37.6 0 4.4-96.8 102-100.8 102-1.2 0-4.8-6.8-8.4-14.8z m48.4-50.4l33.2-33.6-54.8-22.4c-30-12.8-55.6-22.4-56-21.6-2 1.6 40 110.8 42.4 110.8 1.2 0 17.2-15.2 35.2-33.2zM580 348c-12-4.4-22.4-8-23.2-8s-0.8-1.6 0-3.6c2.4-6.4 42.8-36.4 44.8-33.2 3.6 6.4 7.2 52.8 4 52.8-2-0.4-13.6-4-25.6-8zM422 333.6c3.2-22.8 5.6-29.6 10.4-29.6 6.4 0 36 29.2 32.8 32-2.8 2.8-40 16-44.4 16-0.8 0-0.4-8.4 1.2-18.4zM360 265.6c-75.6-29.2-104.4-42-102-45.6 0.8-1.6 6.8-2.4 12.8-1.6 6.4 0.8 8 0.4 4.4-0.8-4-1.2-7.2-3.6-7.2-4.8 0-5.2 218.4-89.2 225.2-86.4 3.6 1.2 6.8 3.2 6.8 4 0 8-72.8 148.8-78.4 151.6-6 3.6-18.8 0-61.6-16.4z m50.4-18l-9.6-22.4 46.4-47.2c50.4-50.4 56.4-62.4 8-15.6-16 15.6-37.6 35.6-48 44.8-14.4 12-17.6 17.2-14 20 2.8 2.4 7.6 11.2 10.4 19.6 10.8 30.4 13.6 35.6 15.2 29.2 0.8-3.6-2.8-16.4-8.4-28.4z m-24 2c-1.2-3.6-2.4-7.2-2.4-8s-8.4-1.6-18.8-1.2h-19.2l18 7.6c22.4 9.2 25.6 9.6 22.4 1.6z m53.6-33.6c7.6-15.2 10-22.8 6.4-21.6-3.2 1.2-6.8 4.8-8 8s-4.4 5.6-7.6 5.6c-10.4 0-14 8-9.6 20.4 2.4 6.4 5.2 11.6 5.6 11.6 0.8 0 6.4-10.8 13.2-24zM499.2 285.2c-4-0.8-7.2-4.4-7.2-7.6 0-4.4 7.6-5.6 36-5.6 33.2 0 36 0.4 36 8 0 7.2-2.4 8-28.8 7.6-16-0.4-32.4-1.2-36-2.4z" fill="#5F338E" p-id="20498"></path><path d="M568 282.8c0-2.8-6.4-20-14-38.4-7.6-18-14-36.4-14-40.8 0-4-1.6-7.6-4-7.6-2 0-4-4.4-4-10s-1.6-10-4-10c-2 0-4-4.4-4-10 0-17.6-8-10.8-20.8 18-6.8 15.6-14 28-15.6 28-2 0-3.6 4-3.6 9.2 0 12.8-5.6 19.6-15.2 18-8-1.2-7.2-4.4 17.2-59.2 14-32 27.6-58 30.4-58 4.4 0 71.6 152.8 71.6 162.8 0 1.6-4.4 3.2-10 3.2s-10-2.4-10-5.2zM603.2 282.4c-4-2.8-7.2-6.4-7.2-7.6s-14.4-34.8-32-74.4-32-73.2-32-74.4c0-7.2 28.8 2.4 106.4 36 106.8 46.4 137.6 60.8 137.6 65.2 0 2-4 5.6-8.8 8-13.6 6.4-147.2 52.8-152.4 52.8-2.8 0-8-2.8-11.6-5.6z m21.2-28.4l12.4-26 68.4-0.8 68.8-0.8-68-1.2-68-1.6-25.2-24.8-25.2-24.8 12.8-2c12.8-2 12.8-2-10.8-11.6-12.8-5.2-29.6-15.2-36.4-21.6-7.2-6.8-13.2-10.4-13.2-8.4 0 2.4 4.4 8.4 10 13.6s10 13.6 10 18.8 2.4 9.2 5.6 9.2c6.8 0 10.4 8.8 10.4 24.4 0 7.2 2 11.6 5.6 11.6 5.6 0 10.4 8.4 10.4 18.8 0 8.8 10 17.2 16 13.2 4.8-2.8 4.4-4.8-1.2-11.2-3.6-4-6.8-12-6.8-17.6s-2.8-12.4-6-15.2-6-6.8-6-9.2 9.2 4.4 20.4 15.2c22 22 22 22.4 8.4 57.2-12 29.2-6.8 26 7.6-5.2z m45.6-1.6l20-8h-18c-25.6-0.4-36 3.2-36 12.4 0 8.4 0.8 8.4 34-4.4z m-12-62l-40-17.2-1.2 9.6c-2.8 19.2 8.8 25.2 46.8 25.2l34.4-0.4-40-17.2zM440 282c0-6 16.8-34 20-34 4.4 0 5.2 19.6 1.6 29.6-2.4 5.6-21.6 9.6-21.6 4.4zM230.8 264c-1.2-4.4-0.4-8 1.6-8s3.6 0.8 3.6 1.6 1.2 4.4 2.4 8 0.8 6.4-1.6 6.4c-2 0-4.8-3.6-6-8z" fill="#5F338E" p-id="20499"></path><path d="M776.4 739.2c-7.2-20.4-20-56.8-28.8-80.4-8.4-24-15.6-44.8-15.6-46.8 0-1.6 6.4 0 14 4s21.2 10 30 13.6c18 7.2 21.6 18.4 6 18.4-5.6 0-10-1.6-10-4 0-2-2.8-4-6-4s-6 0.8-6 1.6 2.8 9.2 6 18.4 6 21.2 6 26.4 2 9.6 4 9.6c2.4 0 4-2.8 4-6s2.8-6 6-6c7.6 0 11.6 22.4 9.2 56.4-1.2 15.2-0.4 27.6 1.2 27.6 2 0 3.6-29.6 3.6-65.2 0-60 0.8-66 8-72.8 7.6-6.8 7.6-6.4 8.8 26l1.2 32.8 22-51.6c12-28 22-53.2 22-56s6.8-12 15.2-20.4c23.2-23.6 17.6-24-8-0.4-17.6 15.6-23.6 19.2-24.4 14.4-1.6-8-12.8-9.2-12.8-1.6 0 6-16.4 14.8-26.4 14.8-3.6 0-8.8 2.8-12 6-3.6 3.2-9.6 6-14 6-4 0-7.6 2-7.6 4 0 2.4 3.6 4 7.6 4 13.2 0 20.4 4.4 20.4 12.4 0 4-2.4 7.6-4.8 7.6-9.6 0-55.6-21.2-54-25.2 1.2-4 141.2-66.8 149.2-66.8 2.8 0 6 1.6 7.2 3.2 2 3.6-91.2 223.2-98.4 231.6-2.4 2.8-5.2 5.2-6.8 5.2s-8.8-16.8-16-36.8zM664 604.8c0-7.2 18.4-44.8 22-44.4 2.4 0 10.8 8.8 19.2 19.6 10.8 14 13.6 20.4 10 21.6-10.4 3.2-51.2 5.6-51.2 3.2zM736 576.4c0-8 7.2-12.4 20.4-12.4 4 0 7.6-1.6 7.6-4 0-2 4.4-4 10-4s10-1.6 10-3.2c0-2 20-11.2 44.4-21.2 41.6-16.4 43.2-17.6 30.8-20.4-7.2-1.2-13.6-4.4-14.4-6.8s-4.8-4.4-8.8-4.4c-9.6 0-36-12.4-36-16.8 0-1.6-3.6-3.2-8-3.2-11.6 0-28-8.4-28-14.8 0-2.8-2.8-5.2-6-5.2-4 0-6 4.4-6 14 0 11.2-1.6 14-8 14-6.8 0-8-2.8-8-21.2 0-12 1.2-22.4 2.4-23.6 2-2 142 58.8 159.2 69.2 7.2 4 7.2 4.8 1.2 8.4-11.2 6-154 63.2-158.4 63.2-2.4 0-4.4-3.6-4.4-7.6zM812 461.2c-71.2-34.8-76.8-38.4-66-41.2 6.8-1.6 21.2-6.8 32-11.6l20-9.2 38 39.6c20.8 21.6 42.4 42.8 48 47.2 10.4 8.4-56.4-66-71.6-79.6-8-7.2-8.4-12-9.2-72l-0.4-64.4-4 62.8-4 62.4-16.8 6.4c-20.8 8-42 14.4-42 12.4 0-3.6 60.8-156.4 63.6-159.2 4-4 22.8 37.6 64.4 143.2 32.8 83.6 38.4 102.4 29.2 101.6-1.6 0-38.4-17.6-81.2-38.4zM679.6 457.2c-2.4-6.4-5.2-17.2-6.4-24.8l-2.4-13.6 21.6 2.8c12 1.6 23.2 4.4 25.2 6.4 3.6 3.6-23.6 40-30 40-2 0-5.6-4.8-8-10.8zM675.2 357.6c-48-49.2-53.6-55.6-47.6-59.2 2-1.2 27.6-11.6 56.8-22.8 29.6-11.2 64-24.8 76.4-30 12.8-5.2 24.8-9.6 27.2-9.6 7.6 0 4 15.2-11.2 48.8-8.4 18-23.2 52.4-32.8 76.4-9.6 23.6-18.8 42.8-20.4 42.8s-23.2-20.8-48.4-46.4z" fill="#D94541" p-id="20500"></path><path d="M230 780c-2.4-4 6-20 10.8-20 2 0 3.2 5.6 3.2 12 0 11.6-8.4 16.8-14 8zM212.4 759.2c-4-10.8 4-18.8 8.4-8 2.4 6 3.2 5.6 5.6-2 1.2-5.2 4-9.2 6-9.2 4.4 0-6.4 22.4-12.4 26-2.4 1.2-5.6-1.6-7.6-6.8zM320 742c0-8.8 1.6-10 14.4-10 17.6 0 16.8 7.2-1.6 14.8-12.4 5.2-12.8 4.8-12.8-4.8zM228 722c0-7.6 2-14 4-14 2.4 0 4-4.4 4-10 0-8 2-10 10-10h10l-8.4 20.8c-10 25.2-11.2 27.2-16 27.2-2 0-3.6-6.4-3.6-14zM198.4 720.8c-1.6-2.8-10.4-24.4-34.8-85.6l-7.6-19.2h10c8 0 10 2 10 10 0 5.6 2 10 4 10 2.4 0 4 4.4 4 10s2 10 4 10c2.4 0 4 4.4 4 10s2 10 4 10c2.4 0 4 4.4 4 10s2 10 4 10c2.4 0 4 6.4 4 14 0 12.8-4.8 18.4-9.6 10.8zM269.2 683.2c7.6-18.4 14.8-19.2 14.8-1.6 0 12.8-1.2 14.4-10 14.4-9.6 0-10-0.4-4.8-12.8zM256 650.4c0-8 2-14.4 4-14.4 2.4 0 4-1.6 4-4 0-2-3.6-4-8-4s-8-2-8-4c0-4 6-7.2 26-14 5.2-2 6-3.6 2.8-4.8-2.8-1.2-10.4 0-16.8 2.4-11.2 3.6-12 3.2-12-5.2 0-14 19.2-16.8 30.4-4.8l8.8 9.2-10.8 27.2c-12 31.6-20.4 38-20.4 16.4zM289.2 635.2c7.6-18.4 14.8-19.2 14.8-1.6 0 12.8-1.2 14.4-10 14.4-9.6 0-10-0.4-4.8-12.8zM182.8 617.2c-1.6-1.2-2.8-8.8-2.8-16.4 0-12 0.8-13.2 6-8.8 3.6 2.8 10 10.4 14.4 16.8l8 11.2h-11.6c-6.4 0-12.8-1.2-14-2.8zM198 596c-4-4.4-5.2-8-3.2-8 5.2 0 15.2 11.6 12.4 14-1.2 1.2-5.2-1.6-9.2-6zM311.2 596.4l-10.8-2.4 16-21.2c9.2-12 18-20 19.6-18 1.6 1.6 5.6 10.8 9.2 20.4 6.4 16.4 6.4 16.8-1.2 16.8-4.4 0-8 2-8 4 0 4.4-7.6 4.4-24.8 0.4zM213.2 581.2c-9.2-4.8-13.2-9.6-13.2-16 0-8 1.2-8.4 10-5.2 19.6 7.6 42 20.4 42 24 0 6-24.4 4.4-38.8-2.8zM240 561.6c-20.8-9.6-53.6-24.8-73.2-33.6-19.2-8.8-37.6-16-41.2-16-8.8 0-4.8-9.2 6.8-14.8 15.2-7.6 47.2-21.2 49.6-21.2 1.2 0 23.6-8.8 49.6-20 26-10.8 49.6-20 52-20 3.2 0 4.4 18.8 4.4 59.6 0 58-2.4 84.8-7.6 84-1.2-0.4-19.6-8.4-40.4-18zM126 539.2c-4.8-11.6-4.8-13.2 0.8-14.4 10.4-2.4 29.2 7.6 29.2 15.6 0 7.2-8 11.2-8 4.8 0-2-5.2-6.8-11.2-11.2l-10.4-7.6 8.8 12.8c8 10.8 8.4 12.8 2.8 12.8-3.6 0-8.8-6-12-12.8zM179.6 438.8c38.8-39.2 46.8-45.6 54-42.8 24.4 9.6 46.4 20 46.4 22 0 3.2-47.2 24.8-130 60-14.4 6-11.6 2.4 29.6-39.2zM256 396c-14.4-6.4-26-13.2-25.6-15.6s0.8-31.6 1.2-65.2c0-33.2 1.2-59.6 2.4-58.4 2 1.6 54 146.8 54 150 0 2.4-6.8 0.4-32-10.8z" fill="#565EB4" p-id="20501"></path><path d="M500.8 897.2c-2-4-8.8-19.6-14.8-35.2-6-15.2-20-48.8-30.4-74.4-10.8-26-19.6-48.4-19.6-50 0-2 32.4-3.2 72-2.4s72 2 72 3.2c0 0.8-15.2 36-34 77.6s-34 77.6-34 79.6c0 7.6-7.6 8.4-11.2 1.6zM460 890.4c-58.8-24.4-202.8-88-209.2-92.4s-6-5.6 6.8-11.6c16.8-8 151.2-54.8 152.8-53.6 0.4 0.8-5.2 14.4-12.8 30.4l-13.6 28.8-65.2 0.8c-52 0.4-59.2 1.2-36.8 3.2 15.6 1.6 45.2 3.2 66 3.6l38 0.4 48 48c26 26 48.4 46.8 49.2 46 1.2-0.8-18-22.8-42.8-48.4-24.4-25.6-44.4-49.6-44.4-53.6 0-9.2 18.8-52 22.8-52 5.6 0.4 70.4 152.4 66.8 156-2 2-13.2-0.4-25.6-5.6zM524 895.2c0-6.8 69.2-155.2 72.4-155.2 2.8 0 23.6 52 23.6 58.8 0 2.8-3.6 6.8-7.6 8.8-6.4 3.6-8 2.4-10-9.6-2.8-13.6-14.4-20.4-14.4-8 0 10-21.2 50-26.8 50-2.8 0-5.2 2.8-5.2 6 0 3.6 2.4 4.8 7.2 3.2 3.6-1.2-2.8 7.6-14.8 20s-21.2 23.6-20 24.8c1.2 0.8 12-8 23.6-20 12-12 23.2-22 24.8-22s3.2 5.6 3.2 12c0 8-2 12-6 12-3.2 0-6 2-6 4 0 4.4-30 19.6-38.8 20-2.8 0-5.2-2.4-5.2-4.8zM692 826c0-10-0.4-10-38.8-10l-39.2-0.4 9.6-7.6c8.4-7.2 15.6-8 76.8-8 65.6 0 80 2.8 56.8 11.2-6.4 2-23.2 8.4-38 14l-27.2 10.4v-9.6zM639.2 793.2c-4-0.8-7.2-4.4-7.2-7.6 0-4.4 6.8-5.6 30-5.6 24 0 30-1.2 30-6s4.8-4 26 4c45.6 16.8 44.8 17.6-16 17.6-30.8-0.4-59.2-1.2-62.8-2.4zM750 780.4c-13.2-6-48-20.8-76.8-32.4-29.2-12-53.2-23.6-53.2-26s9.2-13.2 20-24l20-19.6v14.8c0 13.6-0.8 14.8-12 14.8-6.4 0-12 1.2-12 2.4 0 5.6 11.6 12.8 24.8 15.2 8.4 1.6 17.6 5.2 20.8 8.4s8.8 6 12 6c8.8 0 83.6 32.4 87.2 37.6 4.8 6.8 3.6 14.4-1.6 14.4-2.8-0.4-16-5.2-29.2-11.6zM615.2 761.6c-8.4-20-9.6-25.6-4.8-25.6 10 0 21.6 15.2 21.6 29.2 0 24-5.6 22.8-16.8-3.6zM652 762c0-9.6 0.4-10 12.8-4.8 18.4 7.6 19.2 14.8 1.6 14.8-12.8 0-14.4-1.2-14.4-10zM418 691.6c-1.6-13.2-2-25.2-0.8-26 1.2-1.2 12.4 3.2 24.8 9.6l23.2 11.6-19.2 14.4c-10.4 8.4-20.4 14.8-22 14.8-2 0-4.4-10.8-6-24.4z" fill="#70C862" p-id="20502"></path><path d="M268 616c0-2 2.8-4 6-4s6-1.6 6-4c0-2 1.6-4 3.6-4s2.8 3.6 1.6 8c-2 8-17.2 11.6-17.2 4zM268 598c0-3.6 2-6 4.4-5.2s4.4 3.2 4.4 5.2-2 4.4-4.4 5.2-4.4-1.6-4.4-5.2zM124 532c0-9.6 10.8-10.8 22.4-2.4 11.2 8.4 3.6 12.8-8 4.8-8.8-5.6-10-5.6-8-0.4 1.6 3.2 0.4 6-2 6s-4.4-3.6-4.4-8zM298 391.2c-9.2-26-51.2-135.2-54.8-142-2.4-4.8-3.2-11.2-2-14.4 2-4.8 16.4 0 73.6 24 39.2 16.4 75.6 31.6 80.8 33.6 9.6 4 8 6-39.6 53.6-27.6 27.6-51.2 50-53.2 50-1.6 0-4-2.4-4.8-4.8zM577.2 344.4c-9.6-3.2-17.2-7.2-17.2-8.8 0-1.2 8.4-9.2 18.8-17.2 16.8-13.2 19.2-14 22-7.6 4 10.4 3.6 25.2-0.4 25.2-2 0-4.4 3.2-5.2 7.6-1.2 6.8-2 6.8-18 0.8zM547.2 285.2c-12.4-3.2-8.4-13.2 4.8-13.2 10.8 0 12-1.2 12-12 0-8-2-12-6-12-3.6 0-6-3.6-6-10 0-5.6-1.6-10-4-10-2 0-4-4.4-4-10s-1.6-10-4-10c-2 0-4-4.4-4-10s-1.6-10-4-10c-2 0-4-4.4-4-10s-1.6-10-4-10c-2 0-4-3.6-4-7.6 0-5.2-3.2-8.4-9.6-9.2-9.6-1.2-9.6-1.6-3.6-16.4 3.6-8.4 8-14.4 10.4-13.6s19.2 37.6 36.8 82c26 63.2 31.6 80.8 27.2 82.4-6.4 2.8-23.6 2.4-34-0.4zM612.8 280c6-9.2 19.2-10.8 19.2-2.4 0 2.8-4 6.4-8.8 8-14.4 3.6-15.6 2.8-10.4-5.6zM342 256.4c-88-34.8-90.4-36-57.6-34 14 0.8 44.8 2.4 68 4l42.8 2.4 8 20.4c4.4 11.6 9.2 24 10.8 28 1.6 3.6 1.2 6.8-0.4 6.4-2 0-34-12.4-71.6-27.2zM444 280c0-8.4 37.6-87.6 40.8-85.6 5.6 3.6 3.6 29.6-2.4 29.6-3.2 0-6.4 6-8 15.2-6.8 45.2-6.4 44.8-18.8 44.8-6.4 0-11.6-1.6-11.6-4zM422 274c-1.6-4.4-6.4-17.6-10.8-29.2l-8.4-21.6 45.6-45.6c24.8-24.8 46-44.8 46.8-44s-14.8 34.8-34.4 75.2c-27.6 56.8-36.4 71.6-38.8 65.2zM591.6 261.2c-4.4-10.8-16-37.2-25.6-59.2s-18.4-42.8-18.8-46c-0.8-3.2-3.6-8.4-6-11.2-2.8-2.8-5.2-7.6-5.2-10s7.2 2.8 16 11.2c12.4 12 16 18.8 16 28.8 0 7.2 2 13.2 4 13.2 2.4 0 4-4 4-8.8 0.4-8 3.6-5.6 22.8 14.8l22.8 24-11.2 1.2c-6.4 0.8-14.4-1.6-18.8-5.6-7.2-6.4-7.6-6.4-7.6 1.6 0 4.8 2.4 8.8 5.6 8.8 6 0 10.4 8.4 10.4 20.4 0 4 2 7.6 4 7.6 2.4 0 4-5.2 4-12 0-10 1.6-12 10-12h10l-6.4 15.2c-3.6 8-8 19.6-10.4 26-5.6 15.6-10.4 13.6-19.6-8zM640 274c0-2.8-4.4-6-10-6.8l-9.6-1.2 7.6-16.8c9.2-20.8 16-22 16-3.6v13.6l18.4-2.4c24.8-2.8 22.4 6.4-3.6 16-15.6 6-18.8 6-18.8 1.2zM706 245.2c-1.2-5.6-1.2-11.2 0-12.8 1.6-1.2 17.2-2.8 34.8-3.2 17.6 0 30.4 1.2 28.8 2.8-2 2-16.4 8-32.4 13.2l-28.4 10-2.8-10zM736.4 220.4c-12-1.6-22.4-4.8-23.6-7.6-0.8-2.8-6-4.8-11.2-4.8-6 0-9.6-2.4-9.6-6 0-4-4.4-6-14-6s-14-2-14-6-4.4-6-14-6-14-2-14-6-4-6-12.8-6c-10.8 0.4-12 0.8-6 4.4 4.4 2.8 6.8 8.8 6.8 18.4v14.8l-42-41.6c-22.8-22.8-41.2-42.4-40.4-43.2 1.6-1.6 191.2 79.2 214.4 91.6 14.8 7.6 14 8-19.6 4z m-141.2-63.2c-4-0.8-10.4-0.8-14 0-4 1.2-0.8 2 6.8 2s10.8-0.8 7.2-2z" fill="#8F65B4" p-id="20503"></path><path d="M572 878c0-3.6-3.6-6-8.8-6-8.4 0-7.6-1.6 6.8-14.4l16-14 2.4 11.2c1.6 6 2.8 8.8 3.2 6.4 0-2.8 4.8-5.2 10.4-5.2s10-1.6 10-4c0-2 4.4-4 10-4s10-1.6 10-4c0-2 4.4-4 10-4s10-1.6 10-4c0-2 4.4-4 10-4s10-1.6 10-4c0-2 6.4-4 14.4-4 24.4 0 13.6 8.8-34.8 28-86 34.8-79.6 32.8-79.6 26zM556 857.2c0-5.2 11.6-15.2 14-12.4 1.2 1.2-1.6 5.2-6 9.2s-8 5.2-8 3.2zM600 804.4c0-10.4 1.6-12.4 10-12.4 14 0 12.8 7.2-2.8 19.6-6.4 4.8-7.2 4.4-7.2-7.2zM764 774c0-5.6-1.6-10-4-10-2 0-4-4.4-4-10s-1.6-10-4-10c-2 0-5.2-7.2-6.4-16-1.6-8.8-4-16-6-16s-3.6-6.4-3.6-14.4c0-22.8 8.4-14.4 22.8 22.8 7.2 18.4 16 40.4 19.2 48.8 6 14.8 6 14.8-4 14.8-8 0-10-2-10-10zM781.2 750c-29.6-83.2-48-136-47.2-136.8 0.4-0.8 13.6 4.4 29.2 11.6 31.6 14 38.8 25.2 14.8 22.4-7.6-0.8-14-0.4-14 0.8 0 1.6 3.6 13.2 8 26s8 27.6 8 32.8c0 4.8 1.6 9.2 3.6 9.2 4.4 0 10 38.4 7.6 50.4-0.8 4.8-4.4-1.2-10-16.4zM632 754c0-9.6 0.4-10 12.8-4.8 18.4 7.6 19.2 14.8 1.6 14.8-12.8 0-14.4-1.2-14.4-10z" fill="#E9863D" p-id="20504"></path><path d="M802.8 699.2l2-65.2 44.4-44.8c24.4-24.8 43.2-46 42-47.2-1.2-1.6-9.2 3.6-18 11.2-19.6 17.6-37.6 26.8-53.2 26.8-7.6 0-12 2-12 5.6 0 3.2-6 8-13.6 10.8-8.8 3.2-12.8 6.8-11.6 10.4 1.6 4.4 4 4 10.8-2.4 5.6-5.2 14.4-8.4 22.4-8.4h14l-16.8 16.8-16.8 16.8-26.4-11.2c-14.4-6.4-26.8-12.8-28-14.4-1.6-2.8 141.6-68 149.6-68 2.4 0 4.4 2.4 4.4 5.6 0 4.8-90.4 218-94 221.6-0.4 0.4 0-28.4 0.8-64zM590.8 748c1.2-4.4 3.6-8 5.2-8s4 3.6 5.2 8c1.6 6 0 8-5.2 8s-6.8-2-5.2-8zM589.2 717.2c-2.8-1.2-5.2-6.4-5.2-11.6 0-6.8 2.4-9.6 8-9.6 6 0 8 2.8 8 9.6 0 10.8-3.2 14.4-10.8 11.6zM660 679.2c25.6-24 26-24.4 27.2-13.6 2 15.6-21.6 38.4-39.6 38.4h-13.6l26-24.8zM559.6 693.6c-6.4-7.2-5.6-8 17.2-18.4l23.6-10.8-1.2 10.8c-1.2 9.2-3.2 10.8-16 12-9.2 0.8-15.2 3.6-16 7.6-1.2 5.2-2 4.8-7.6-1.2zM724 670c0-5.6-1.6-10-4-10-5.6 0-9.6-28-4.4-33.2 5.6-5.6 6-5.2 18 26.4l10 26.8h-9.6c-8 0-10-2-10-10zM675.2 581.6l10.8-22 14.8 17.2c8.4 9.6 15.2 18.4 15.2 19.6 0 2.8-24.8 7.6-40.8 7.6h-11.2l11.2-22.4zM736 576.4c0-4.8 3.2-8.4 9.2-9.6l8.8-1.6-8.8-0.8c-8.8-0.4-9.2-1.6-9.2-41.2 0.4-22.8 2.4-49.6 5.2-60l5.2-18.8 37.6 17.2c20.4 9.2 38.4 19.2 39.2 21.6 2 6.8-25.2 6-32-0.4-2.8-3.2-10-6.4-15.2-7.6-5.6-1.2-13.2-3.6-16.8-5.2-6.8-2.8-7.2 0.8-7.2 43.6 0 25.6 0.8 46.4 2 46.4s8.8-2.8 16.8-6c7.6-3.2 16.8-6 20-6s8.4-2.8 11.6-6 12.4-6.8 20.8-8.4c8-1.6 17.2-5.2 20-8.4 2.8-2.8 10-5.2 15.2-5.2 9.2 0 9.6-0.8 4-6-3.2-3.2-9.2-6-13.2-6-11.6 0-18-6-16.4-15.2 1.2-8 2.4-8 34.4 6 18 7.6 32.8 15.6 32.8 17.2 0 2.8-132.4 58.8-154.8 66-7.6 2-9.2 0.8-9.2-5.6z" fill="#E9863D" p-id="20505"></path><path d="M576 343.6l-18-8 10-8c5.6-4.4 14.8-11.2 20.4-15.6l10.4-7.6 4 23.6c4.4 27.6 2.8 28.8-26.8 15.6zM612 285.6c0-1.2 3.6-9.2 8-17.6 8.4-16 16-20.8 16-10 0 3.2 2.8 6 6 6s6-1.6 6-3.2c0-4.4 51.6-20.8 65.2-20.8 6 0 10.8-1.6 10.8-3.6 0-5.6 16.8-8.4 32-4.8l14 2.8-20 5.2c-10.8 2.8-23.2 6.8-27.2 8.8-16 8.8-110.8 40.4-110.8 37.2zM451.2 281.2c-8.8-2-8.8-2.8-1.2-17.2 7.2-13.6 14-15.6 14-4 0 6.4 2.8 8 12 8s12 1.6 12 8c0 6.8-2.4 8-14.8 7.6-8.4-0.4-18.4-1.2-22-2.4zM605.2 273.6c1.2-6 0-8.4-4.4-8-3.2 0-8.4-5.2-11.2-12l-5.2-12.8 18-2.8c10-1.2 18.8-2 19.6-1.2s-3.2 11.2-8.4 23.2c-5.6 12-9.2 18-8.4 13.6zM560 253.6c0-17.6 7.2-16.8 14.8 1.6 5.2 12.4 4.8 12.8-4.8 12.8-8.8 0-10-1.6-10-14.4zM465.2 231.2c27.6-65.2 49.2-110.4 52-108.4 4 2.4 12.8 21.2 26.4 56.4l8.4 20.8h-10c-8 0-10-2-10-10 0-5.6-1.6-10-4-10-2 0-4-4.4-4-10s-2-10-4-10c-2.4 0-6.4 4.4-8.8 10s-6.8 10-10 10-5.2 4.8-5.2 13.6c0 7.6-2.8 16.4-6 20-3.2 3.2-6 8.4-6 11.6 0 12.4-5.2 18.8-14.4 18.8s-9.6-0.4-4.4-12.8zM573.6 217.6c-3.2-8-13.2-30-22-48.8-8.4-18.4-15.6-34.8-15.6-36 0-1.6 7.2 4.8 16.4 13.2 19.2 18.8 61.2 67.2 49.2 57.2-8.8-7.6-25.6-9.6-25.6-3.2 0 2.4 2.8 4 6 4 4 0 6 4.4 6 14 0 18-6.8 18-14.4-0.4zM698.4 221.2l-63.2-1.6-47.6-47.6c-26.4-26.4-47.2-48-46-48 2.4 0 215.2 92 222.4 96.4 3.2 1.6 4.4 3.2 2 2.4-2-0.4-32.4-1.2-67.6-1.6z" fill="#CA6CB2" p-id="20506"></path><path d="M552.4 884.8c-8.8-1.6-8.8-2 6-15.6 13.6-12.4 15.6-13.2 18-6.4 1.6 4 3.2 4.8 3.2 2.4 0.4-2.8 4.8-5.2 10.4-5.2s10-1.6 10-4c0-2 4.4-4 10-4s10-1.6 10-4c0-2 4.4-4 10-4s10-1.6 10-4c0-2 4.4-4 10-4s10-1.6 10-4c0-2 4.4-4 10-4s10-1.6 10-4c0-2 6.4-4 14.4-4 25.6 0 13.2 8.8-44.8 32-81.2 32.8-86.8 34.4-97.2 32.8zM544 869.2c0-4.8 15.2-19.2 18-16.4 1.2 0.8-2.4 6-8 11.2s-10 7.6-10 5.2zM615.6 814.4c12.4-13.2 25.6-14 23.6-1.2-0.8 7.2-4 9.2-17.2 10l-16 1.2 9.6-10zM732 811.6c0-4 2.4-7.6 5.2-8 26-2.4 30.8-2.4 30.8 0.4 0 2-8 6-18 9.2-17.2 6-18 6-18-1.6zM572.8 789.2c14-29.6 19.2-32.4 19.2-11.2 0 12.4-1.2 14-10.4 14-5.6 0-9.6-1.2-8.8-2.8zM773.2 789.2c-2.8-0.8-5.2-4.4-5.2-7.6s-1.6-5.6-3.6-5.6c-4.8 0-12.4-22.4-12.4-36.8 0-18.8 8.4-11.2 20.8 18.8 14.4 34.8 14.4 37.2 0.4 31.2zM667.2 777.2c-4-0.8-7.2-3.6-7.2-5.6s-4.4-3.6-10-3.6-10-1.6-10-4c0-2-4-4-8.8-4-12 0-17.6-4-21.2-15.2-3.2-11.2-5.2-11.6 49.6 10.4 40.4 16.4 50.4 25.2 27.6 24.4-7.2-0.4-16.4-1.2-20-2.4zM762.8 694.8c-14.8-42.4-26.8-78-26.8-79.2s10.8 2.8 24 8.8c13.2 6.4 25.6 11.6 28 11.6s4 24.8 4 68c0 37.6-0.4 68-1.2 68-0.4 0-13.2-34.8-28-77.2zM636.8 732c-19.6-8.8-19.2-13.6 4-34 28.4-24.8 27.2-24.4 27.2-10.4 0 7.2-2 12.4-4.8 12.4-6.4 0-16 19.2-10.4 20.8 2.4 0.8 3.2 5.2 2.4 10l-1.2 8.8-17.2-7.6zM734.4 705.2c-3.6-10.4-6.4-21.2-6.4-24 0-3.2-2.8-8.4-6-11.6-3.2-3.6-6-11.2-6-17.6s-2.4-12-4.8-13.2c-4-1.2-3.2-3.6 1.6-9.2 4-4 7.6-6.4 8.4-5.2 0.8 0.8 6.4 15.2 12.8 31.6 6 16.4 14.4 38.4 18.4 49.2l7.6 18.8h-9.6c-8 0-10.8-3.6-16-18.8zM574.8 706c-10.4-8-18.8-15.6-18.8-17.2s10-7.6 22-13.2c19.6-9.2 22-9.6 22-3.2 0 4-3.2 8-6.8 8.8-6.8 1.6-6.8 2 0 2.4 7.2 0.4 8.8 15.6 3.2 29.6-2.4 6.4-4.4 5.6-21.6-7.2zM768.8 616.8c-13.6-5.6-24.8-11.6-24.8-12.8 0-4 148-69.2 150.8-66.4 1.6 1.2 0 2.4-3.2 2.4s-16.4 10.8-29.6 24.4c-13.2 13.2-34 32.8-46 43.6l-22 19.2-25.2-10.4zM738.8 514.8c1.2-38 2.4-69.2 2.8-69.6 1.2-1.6 151.2 66 154.8 69.6 3.2 3.2-115.6 54.8-149.2 65.2l-10.8 3.2 2.4-68.4z" fill="#F0AE68" p-id="20507"></path><path d="M231.2 782c-1.2-1.2 13.2-39.2 32-84.4l34.4-81.6 51.2 50.8c28 28 49.6 52 48 53.6-2.4 2.4-138 56-156.8 62-3.6 1.2-7.2 0.8-8.8-0.4zM170.8 650.8c-26-64.4-46.8-119.6-46.8-122.4 0-3.6 3.2-4.4 9.2-2.8 13.2 3.2 142 66 144.8 70.4 1.6 2.4-0.8 5.2-4.8 6.4s-16.8 6-28.8 10.8l-21.6 8-40.8-41.6c-70.8-72.4-75.2-70.4-6.4 3.2l42.4 45.2 2 66.8c1.2 37.2 0.8 68.8-0.4 70.4s-23.2-49.6-48.8-114.4z" fill="#7FCEC1" p-id="20508"></path><path d="M228.8 690l1.2-63.6 24-8.4c13.2-4.4 26.4-9.6 29.2-11.2 3.2-2 1.6 4.8-3.6 18-4.4 11.6-17.2 44.4-28.4 73.2-10.8 28.8-20.8 52.8-21.6 53.6-1.2 1.2-1.2-26.8-0.8-61.6zM315.2 597.2c-6.4-0.8-11.2-3.2-11.2-4.8 0-3.6 28.8-41.2 30.4-39.6 0.4 0.8 5.6 11.6 11.2 24.4l10 22.8-14.8-0.4c-8-0.4-19.6-1.6-25.6-2.4z" fill="#7FCEC1" p-id="20509"></path><path d="M612.8 284.8c3.2-6 16.4-35.2 19.6-43.6 3.2-9.2 4.8-9.2 68-9.2 35.6 0 64 0.8 63.2 1.6-3.6 3.6-152 54-150.8 51.2zM461.2 281.2c-9.6-0.8-17.2-2-17.2-2.8 0-0.4 5.2-11.6 11.2-24.8 6.4-12.8 22-47.6 34.8-76.8s25.2-52.4 27.6-51.6c2 0.8 17.6 34.4 34.4 75.2 16.4 40.4 31.6 76 33.2 78.8 2.4 3.6-8.8 4.8-52 4-30.4-0.4-62.8-1.2-72-2zM594.8 265.2c-3.2-8.4-17.6-41.6-32-73.6l-25.6-58.4 44.4 46c24.4 25.2 44.4 46.8 44.4 48.4 0 5.6-20 52.4-22.4 52.4-1.6 0-5.6-6.8-8.8-14.8z" fill="#D999C8" p-id="20510"></path><path d="M526 896c-1.2-2 8-24.8 20.4-50.8s28.8-60.8 36.4-77.2l14-30 11.6 30 11.6 30-46.8 46.8c-25.6 26-46 48-44.8 49.2s22-16.4 45.6-38.8c23.6-22.8 46-43.2 49.6-46 7.2-4.8 146.4-9.2 141.2-4.4-1.6 1.2-46.8 20-100.8 41.2s-106.4 42-116.8 46.4c-10.8 4-20 5.6-21.2 3.6z" fill="#F9EE60" p-id="20511"></path><path d="M672.4 792.4l-45.2-2.4-9.6-25.6c-5.2-14-9.2-26-8.8-26.4 1.6-1.6 138.8 52.4 142 55.2 1.2 1.6-5.6 2.4-15.2 2s-38-1.6-63.2-2.8zM756.4 781.6c-12-5.2-46-19.6-76-32s-55.6-24-57.2-25.2c-1.6-1.6 19.2-24.8 46.8-52.4 56.4-56 47.6-56 68-2 22 58.4 30.8 80.4 38.4 98.8 11.2 27.6 12 27.2-20 12.8zM575.2 705.2c-10.8-7.6-19.2-15.2-19.2-16.4 0.4-3.6 40.8-21.2 43.2-18.8 1.2 0.8 0.4 12.4-1.6 25.6l-3.6 24-18.8-14.4z" fill="#F9EE60" p-id="20512"></path></svg>